<svg width="32" height="35" viewBox="0 0 32 35" fill="none" xmlns="http://www.w3.org/2000/svg">
<path d="M29.125 3.25H25.1875V1.9375C25.1875 1.5894 25.0492 1.25556 24.8031 1.00942C24.5569 0.763281 24.2231 0.625 23.875 0.625C23.5269 0.625 23.1931 0.763281 22.9469 1.00942C22.7008 1.25556 22.5625 1.5894 22.5625 1.9375V3.25H9.4375V1.9375C9.4375 1.5894 9.29922 1.25556 9.05308 1.00942C8.80694 0.763281 8.4731 0.625 8.125 0.625C7.7769 0.625 7.44306 0.763281 7.19692 1.00942C6.95078 1.25556 6.8125 1.5894 6.8125 1.9375V3.25H2.875C2.17881 3.25 1.51113 3.52656 1.01884 4.01884C0.526562 4.51113 0.25 5.17881 0.25 5.875V32.125C0.25 32.8212 0.526562 33.4889 1.01884 33.9812C1.51113 34.4734 2.17881 34.75 2.875 34.75H29.125C29.8212 34.75 30.4889 34.4734 30.9812 33.9812C31.4734 33.4889 31.75 32.8212 31.75 32.125V5.875C31.75 5.17881 31.4734 4.51113 30.9812 4.01884C30.4889 3.52656 29.8212 3.25 29.125 3.25ZM6.8125 5.875V7.1875C6.8125 7.5356 6.95078 7.86944 7.19692 8.11558C7.44306 8.36172 7.7769 8.5 8.125 8.5C8.4731 8.5 8.80694 8.36172 9.05308 8.11558C9.29922 7.86944 9.4375 7.5356 9.4375 7.1875V5.875H22.5625V7.1875C22.5625 7.5356 22.7008 7.86944 22.9469 8.11558C23.1931 8.36172 23.5269 8.5 23.875 8.5C24.2231 8.5 24.5569 8.36172 24.8031 8.11558C25.0492 7.86944 25.1875 7.5356 25.1875 7.1875V5.875H29.125V11.125H2.875V5.875H6.8125ZM29.125 32.125H2.875V13.75H29.125V32.125ZM13.375 17.6875V28.1875C13.375 28.5356 13.2367 28.8694 12.9906 29.1156C12.7444 29.3617 12.4106 29.5 12.0625 29.5C11.7144 29.5 11.3806 29.3617 11.1344 29.1156C10.8883 28.8694 10.75 28.5356 10.75 28.1875V19.8105L10.0248 20.1747C9.7133 20.3305 9.35263 20.3561 9.02219 20.2459C8.69174 20.1358 8.41858 19.8989 8.26281 19.5873C8.10704 19.2758 8.08141 18.9151 8.19156 18.5847C8.3017 18.2542 8.53861 17.9811 8.85016 17.8253L11.4752 16.5128C11.6753 16.4126 11.8978 16.3653 12.1214 16.3754C12.345 16.3854 12.5624 16.4525 12.7527 16.5702C12.9431 16.6879 13.1002 16.8524 13.2092 17.0479C13.3181 17.2435 13.3752 17.4637 13.375 17.6875ZM23.0809 22.6832L19.9375 26.875H22.5625C22.9106 26.875 23.2444 27.0133 23.4906 27.2594C23.7367 27.5056 23.875 27.8394 23.875 28.1875C23.875 28.5356 23.7367 28.8694 23.4906 29.1156C23.2444 29.3617 22.9106 29.5 22.5625 29.5H17.3125C17.0688 29.5 16.8298 29.4321 16.6225 29.304C16.4151 29.1758 16.2476 28.9925 16.1386 28.7745C16.0296 28.5565 15.9834 28.3124 16.0053 28.0696C16.0272 27.8269 16.1163 27.595 16.2625 27.4L20.9842 21.1049C21.0916 20.9619 21.1687 20.7985 21.2106 20.6247C21.2526 20.4509 21.2586 20.2703 21.2283 20.0941C21.198 19.9178 21.132 19.7497 21.0343 19.5999C20.9366 19.4501 20.8094 19.3218 20.6604 19.2229C20.5114 19.1241 20.3437 19.0567 20.1677 19.025C19.9918 18.9932 19.8111 18.9978 19.637 19.0384C19.4628 19.079 19.2988 19.1547 19.155 19.2609C19.0111 19.3672 18.8905 19.5017 18.8005 19.6562C18.7169 19.8103 18.6033 19.946 18.4663 20.0554C18.3294 20.1648 18.1719 20.2456 18.0032 20.2932C17.8345 20.3407 17.658 20.354 17.4841 20.3323C17.3102 20.3105 17.1424 20.2541 16.9907 20.1665C16.8389 20.0788 16.7062 19.9616 16.6005 19.8218C16.4947 19.6821 16.418 19.5225 16.3749 19.3527C16.3318 19.1828 16.3232 19.006 16.3495 18.8327C16.3759 18.6594 16.4367 18.4932 16.5283 18.3438C16.9618 17.5935 17.6308 17.0072 18.4314 16.6757C19.2321 16.3443 20.1197 16.2862 20.9567 16.5105C21.7937 16.7348 22.5333 17.2289 23.061 17.9163C23.5886 18.6037 23.8747 19.446 23.875 20.3125C23.8778 21.1685 23.5987 22.0016 23.0809 22.6832Z" fill="#35271D"/>
</svg>
