<svg width="47" height="61" viewBox="0 0 47 61" fill="none" xmlns="http://www.w3.org/2000/svg">
<path fill-rule="evenodd" clip-rule="evenodd" d="M13.4131 10.553C13.4131 7.87782 14.4758 5.31221 16.3674 3.42057C18.2591 1.52893 20.8247 0.466217 23.4999 0.466217C26.1751 0.466217 28.7407 1.52893 30.6323 3.42057C32.5239 5.31221 33.5867 7.87782 33.5867 10.553C33.5867 13.2282 32.5239 15.7938 30.6323 17.6854C28.7407 19.5771 26.1751 20.6398 23.4999 20.6398C20.8247 20.6398 18.2591 19.5771 16.3674 17.6854C14.4758 15.7938 13.4131 13.2282 13.4131 10.553ZM3.65744 27.0753C5.71073 25.1261 8.43387 24.0394 11.265 24.0394C14.0962 24.0394 16.8193 25.1261 18.8726 27.0753L18.9162 27.1189L23.4999 31.7026L28.0879 27.1189L28.1315 27.0753C30.1844 25.1286 32.9057 24.0435 35.7347 24.0435C38.5638 24.0435 41.2851 25.1286 43.3379 27.0753C44.3565 28.043 45.1678 29.2076 45.7226 30.4984C46.2774 31.7892 46.5641 33.1792 46.5653 34.5842C46.5665 35.9892 46.2822 37.3797 45.7297 38.6715C45.1771 39.9632 44.3679 41.1292 43.351 42.0987L25.0162 59.9194C24.6095 60.3147 24.0648 60.5358 23.4977 60.5358C22.9306 60.5358 22.3859 60.3147 21.9792 59.9194L3.64873 42.0987C2.63226 41.1296 1.82324 39.9641 1.27073 38.6729C0.718228 37.3817 0.433757 35.9917 0.434572 34.5873C0.435387 33.1829 0.721471 31.7933 1.27547 30.5027C1.82947 29.2122 2.63985 28.0432 3.65744 27.0753Z" fill="#8F705A"/>
</svg>
